<?xml version="1.0" encoding="iso-8859-1"?>
<!-- Generator: Adobe Illustrator 25.2.3, SVG Export Plug-In . SVG Version: 6.00 Build 0)  -->
<svg version="1.1" id="Calque_1" xmlns="http://www.w3.org/2000/svg" xmlns:xlink="http://www.w3.org/1999/xlink" x="0px" y="0px"
	 viewBox="0 0 100 100" style="enable-background:new 0 0 100 100;" xml:space="preserve">
<path id="FOND" style="fill:#F9F9F7;" d="M0,0h100v100H0V0z"/>
<path style="fill:#1D1D1B;" d="M43.05,34.176l-22.696,0.027c-6.033-0.016-9.978,4.539-10.005,9.814
	c-0.038,6.347,5.488,9.768,9.83,9.746l18.442-0.053c1.079,0,3.214,0.76,3.183,3.269c-0.032,2.514-2.365,3.335-3.297,3.237
	c-15.077-0.002-28.096-0.039-28.096-0.039v6.526l29.898-0.032c3.536,0.028,9.861-2.572,9.875-9.7
	c0.017-6.651-5.597-9.862-9.974-9.788L24.187,47.24c0,0-2.221-0.032-2.222-0.032c-0.477,0-3.123-0.427-3.176-3.251
	c0-2.503,2.195-3.293,3.246-3.246c17.091,0.002,21.017-0.012,21.017-0.012l0.077-6.417L43.05,34.176z"/>
<path style="fill:#1D1D1B;" d="M68.656,66.695L49.995,49.523c-3.123-3.289-3.622-9.355,0.234-13.328
	c3.626-3.736,9.617-3.756,13.098-0.673c1.405,1.244,1.974,1.79,3.654,3.324c-1.206,1.187-4.646,4.269-4.646,4.269
	s-2.342-2.13-3.005-2.743c-1.084-0.895-3.186-1.267-4.632,0.368c-1.512,1.71-0.645,3.79,0.107,4.473
	c1.646,1.494,13.822,12.71,13.822,12.71c3.197-2.957,7.841-7.245,13.65-12.686c1.135-1.063,1.398-3.078,0.015-4.499
	c-1.527-1.569-3.608-1.058-4.599-0.104c-2.222,2.055-10.591,9.713-10.591,9.713l-4.689-4.318c0,0,10.23-9.409,11.48-10.609
	c2.373-2.28,8.622-3.533,12.881,0.69c4.824,4.784,2.703,11.387,0.024,13.823C82.751,53.612,68.656,66.695,68.656,66.695z"/>
</svg>
