<?xml version="1.0" encoding="iso-8859-1"?>
<!-- Generator: Adobe Illustrator 25.2.3, SVG Export Plug-In . SVG Version: 6.00 Build 0)  -->
<svg version="1.1" id="Calque_1" xmlns="http://www.w3.org/2000/svg" xmlns:xlink="http://www.w3.org/1999/xlink" x="0px" y="0px"
	 viewBox="0 0 100 100" style="enable-background:new 0 0 100 100;" xml:space="preserve">
<g id="FOND">
	<rect y="0" style="fill:#1D1D1B;" width="100" height="100"/>
</g>
<g id="Calque_3">
	<g>
		<path style="fill:#F9F9F7;" d="M43.05,34.176l-22.696,0.027c-6.033-0.016-9.978,4.539-10.005,9.814
			c-0.038,6.347,5.488,9.768,9.83,9.746l18.442-0.053c1.079,0,3.214,0.76,3.183,3.269c-0.032,2.514-2.365,3.335-3.297,3.237
			c-15.077-0.002-28.096-0.039-28.096-0.039v6.526l29.898-0.032c3.536,0.028,9.861-2.572,9.875-9.7
			c0.017-6.651-5.597-9.862-9.974-9.788L24.187,47.24c0,0-2.221-0.032-2.222-0.032c-0.477,0-3.123-0.427-3.176-3.251
			c0-2.503,2.195-3.293,3.246-3.246c17.091,0.002,21.017-0.012,21.017-0.012l0.077-6.417L43.05,34.176z"/>
		<g>
			<g>
				<path style="fill:#F9F9F7;" d="M68.656,66.695L49.995,49.523c-3.123-3.289-3.622-9.355,0.234-13.328
					c3.626-3.736,9.617-3.756,13.098-0.673c1.405,1.244,1.974,1.79,3.654,3.324c-1.206,1.187-4.646,4.269-4.646,4.269
					s-2.342-2.13-3.005-2.743c-1.084-0.895-3.186-1.267-4.632,0.368c-1.512,1.71-0.645,3.79,0.107,4.473
					c1.646,1.494,13.822,12.71,13.822,12.71c3.197-2.957,7.841-7.245,13.65-12.686c1.135-1.063,1.398-3.078,0.015-4.499
					c-1.527-1.569-3.608-1.058-4.599-0.104c-2.222,2.055-10.591,9.713-10.591,9.713l-4.689-4.318c0,0,10.23-9.409,11.48-10.609
					c2.373-2.28,8.622-3.533,12.881,0.69c4.824,4.784,2.703,11.387,0.024,13.823C82.751,53.612,68.656,66.695,68.656,66.695z"/>
			</g>
		</g>
	</g>
</g>
<g id="Calque_4" style="display:none;">
	<g style="display:inline;">
		<g>
			<path style="fill:#010202;" d="M50.084,66.718l-18.681-17.19c-3.126-3.292-3.626-9.366,0.234-13.343
				c3.63-3.74,9.627-3.76,13.112-0.673c1.407,1.246,1.976,1.792,3.658,3.328c-1.207,1.188-4.651,4.274-4.651,4.274
				s-2.345-2.133-3.008-2.746c-1.085-0.896-3.19-1.268-4.637,0.369c-1.514,1.712-0.646,3.794,0.107,4.478
				c1.648,1.496,13.837,12.724,13.837,12.724c3.2-2.96,7.85-7.253,13.665-12.7c1.136-1.064,1.399-3.081,0.015-4.504
				c-1.529-1.57-3.612-1.059-4.604-0.104c-2.224,2.057-10.602,9.724-10.602,9.724l-4.695-4.323c0,0,10.241-9.419,11.492-10.621
				c2.376-2.282,8.632-3.537,12.895,0.691c4.829,4.789,2.706,11.399,0.024,13.838C64.194,53.621,50.084,66.718,50.084,66.718z"/>
		</g>
	</g>
</g>
</svg>
