<?xml version="1.0" encoding="iso-8859-1"?>
<!-- Generator: Adobe Illustrator 25.2.3, SVG Export Plug-In . SVG Version: 6.00 Build 0)  -->
<svg version="1.1" xmlns="http://www.w3.org/2000/svg" xmlns:xlink="http://www.w3.org/1999/xlink" x="0px" y="0px"
	 viewBox="0 0 466.878 101.945" style="enable-background:new 0 0 466.878 101.945;" xml:space="preserve">
<g id="BG_1_">
	<g id="BG">
		<rect x="-25.064" y="-4.775" style="fill:#F9F9F7;" width="503.59" height="111.19"/>
	</g>
</g>
<g id="Calque_4" style="display:none;">
	
		<image style="display:inline;overflow:visible;" width="1584" height="348" xlink:href="../../../../Capture d&#x2019;e&#x301;cran 2026-02-25 a&#x300; 18.29.56.png"  transform="matrix(0.2948 0 0 0.2948 0.3141 -0.5025)">
	</image>
</g>
<g id="NOIR">
	<g>
		<circle style="display:none;fill:#1D1D1B;" cx="404.58" cy="64.629" r="4.755"/>
		<g style="display:none;">
			<path style="display:inline;" d="M409.322,64.603c0,2.623-2.057,4.679-4.736,4.679c-2.65,0-4.763-2.056-4.763-4.679
				c0-2.563,2.114-4.622,4.763-4.622C407.264,59.981,409.322,62.04,409.322,64.603z M401.007,64.603
				c0,2.059,1.522,3.693,3.608,3.693c2.029,0,3.523-1.634,3.523-3.663c0-2.059-1.494-3.72-3.551-3.72S401.007,62.574,401.007,64.603
				z M403.854,67.029h-1.072v-4.622c0.423-0.085,1.014-0.142,1.776-0.142c0.873,0,1.268,0.142,1.607,0.337
				c0.254,0.197,0.451,0.565,0.451,1.017c0,0.507-0.395,0.902-0.958,1.069v0.057c0.45,0.17,0.705,0.507,0.845,1.127
				c0.141,0.705,0.226,0.987,0.339,1.157h-1.156c-0.141-0.17-0.225-0.592-0.366-1.129c-0.085-0.507-0.367-0.732-0.958-0.732h-0.507
				V67.029z M403.881,64.406h0.507c0.592,0,1.072-0.195,1.072-0.675c0-0.422-0.311-0.705-0.987-0.705
				c-0.282,0-0.48,0.028-0.592,0.055V64.406z"/>
		</g>
		<path style="fill:#1F1F1F;" d="M402.234,68.664c-0.702-0.416-1.261-0.981-1.675-1.695c-0.416-0.714-0.623-1.492-0.623-2.335
			c0-0.83,0.207-1.599,0.623-2.307c0.414-0.708,0.973-1.27,1.675-1.684c0.702-0.416,1.474-0.623,2.316-0.623
			c0.844,0,1.619,0.207,2.327,0.623c0.708,0.414,1.27,0.976,1.684,1.684c0.416,0.708,0.623,1.477,0.623,2.307
			c0,0.844-0.207,1.622-0.623,2.335c-0.414,0.714-0.973,1.279-1.675,1.695c-0.702,0.414-1.48,0.623-2.336,0.623
			C403.708,69.287,402.936,69.079,402.234,68.664z M406.244,67.566c0.519-0.306,0.927-0.718,1.227-1.237
			c0.3-0.519,0.449-1.078,0.449-1.675c0-0.611-0.152-1.176-0.458-1.695c-0.306-0.519-0.714-0.93-1.227-1.236
			c-0.513-0.306-1.069-0.459-1.666-0.459c-0.611,0-1.176,0.154-1.695,0.459c-0.519,0.306-0.932,0.717-1.236,1.236
			c-0.306,0.519-0.459,1.084-0.459,1.695c0,0.598,0.154,1.157,0.459,1.675c0.304,0.519,0.714,0.932,1.227,1.237
			c0.513,0.304,1.075,0.458,1.684,0.458C405.161,68.024,405.726,67.87,406.244,67.566z M402.793,62.254h1.702
			c0.611,0,1.097,0.137,1.456,0.413c0.361,0.274,0.541,0.65,0.541,1.125c0,0.317-0.082,0.593-0.247,0.824
			c-0.165,0.233-0.393,0.404-0.687,0.513l1.063,1.869h-1.246l-0.897-1.686h-0.548v1.686h-1.136V62.254z M405.109,64.223
			c0.14-0.091,0.21-0.23,0.21-0.411c0-0.183-0.07-0.322-0.21-0.413c-0.14-0.091-0.338-0.137-0.595-0.137h-0.586v1.098h0.586
			C404.77,64.36,404.969,64.314,405.109,64.223z"/>
		<path style="fill:#1F1F1F;" d="M155.508,51.333c0-9.555-5.779-16.743-16.837-16.743l-10.557,0.005l-10.547-0.009
			c-11.058,0-16.835,6.36-16.835,16.761c0,9.691,5.046,16.631,16.845,16.631l21.096-0.005
			C150.472,67.971,155.508,61.867,155.508,51.333z M136.451,61.36v-0.002c0,0-1.567,0.001-8.331,0.002
			c-6.765-0.001-8.332-0.002-8.332-0.002v0.002c-0.397,0-0.768,0-1.184,0c-5.591,0-9.318-2.184-9.318-10.014
			c0-8.756,4.556-10.08,9.133-10.08l1.369,0v0.004l8.332-0.002l8.331,0.002v-0.004l1.369,0c4.577,0,9.04,1.347,9.04,10.104
			c0,7.795-3.635,9.991-9.225,9.991C137.22,61.36,136.848,61.36,136.451,61.36z"/>
		<path style="fill:#1F1F1F;" d="M258.164,55.694l-0.022-9.252c-0.006-2.198,3.942-5.251,6.762-5.23l18.168,0.001
			c1.771,0.019,5.792-0.396,5.748,3.152c-0.04,3.203-2.89,3.553-4.602,3.55c-14.99-0.023-24.025,0-24.025,0v6.665l24.264-0.002
			c3.761,0.04,13.467-1.206,13.422-9.8c-0.045-8.835-9.451-10.149-13.807-10.195l-19.403,0.008
			c-4.262-0.041-9.527,2.387-11.06,5.275c-2.104-3.138-6.596-5.276-12.292-5.283l-10.543,0.01l-10.545,0.012
			c-11.058,0-16.876,6.319-16.876,16.719c0,9.691,5.067,16.642,16.867,16.642l10.547,0.031l10.546-0.031
			c5.702,0,9.565-1.537,12.305-4.333c2.956,2.655,7.446,4.311,12.205,4.343l32.118,0v-6.661l-33.199-0.004
			C261.055,61.287,258.172,58.567,258.164,55.694z M240.281,61.312c-0.415,0-0.787,0-1.184,0V61.31c0,0-1.566,0.001-8.331,0.002
			c-6.765-0.001-8.332-0.002-8.332-0.002v0.002c-0.397,0-0.769,0-1.184,0c-5.591,0-9.328-2.158-9.328-9.988
			c0-8.756,4.566-10.106,9.143-10.106l1.369,0v0.004l8.332-0.002l8.332,0.002v-0.004l1.369,0c4.576,0,9.09,1.352,9.09,10.109
			C249.556,59.122,245.872,61.312,240.281,61.312z"/>
		<path style="fill:#1F1F1F;" d="M201.358,41.179V34.59h-28.94c-8.118,0-14.843,6.02-14.91,16.743
			c-0.061,9.653,6.784,16.645,14.903,16.645l28.947-0.017v-6.695l-28.101,0.004c-3.433,0-7.177-1.366-7.12-9.911
			s3.768-10.183,7.306-10.183C188.425,41.179,201.358,41.179,201.358,41.179z"/>
		<path style="fill:#1F1F1F;" d="M353.259,47.906v6.69l24.207,0.03c3.686,0.067,7.628,4.305,7.593,6.678v6.673l8.61,0.001l0-7.065
			c0.084-5.819-7.076-12.88-16.115-13.026L353.259,47.906z"/>
		<g>
			<path style="fill:#1D1D1B;" d="M361.014,34.585l-6.308,0.006c-5.454,0-9.863,3.348-9.863,7.599v25.793l8.61-0.005V44.467
				c0-0.841,0.369-3.221,6.863-3.236c7.413-0.017,6.863,3.274,6.863,4.629l8.61-0.007C375.727,39.567,372.577,34.432,361.014,34.585
				z"/>
			<path style="fill:#1D1D1B;" d="M375.839,48.482h-0.049c0.001,0.034,0.006,0.068,0.006,0.102L375.839,48.482z"/>
		</g>
		<path style="fill:#1F1F1F;" d="M334.229,34.59l-0.006,19.899c-0.003,2.576-0.065,6.851-8.063,6.851l-4.533,0.042l-5.561-0.033
			c-7.355,0-7.522-4.8-7.554-6.859l-0.006-19.899h-8.607v19.971c0,10.988,7.963,13.473,17.003,13.422h8.931
			c9.04,0.052,17.003-2.69,17.003-13.422V34.59H334.229z"/>
		<path style="fill:#1F1F1F;" d="M91.267,34.507l-23.405,0.028c-6.222-0.016-10.29,4.681-10.318,10.121
			c-0.04,6.546,5.659,10.074,10.137,10.051l19.018-0.055c1.113,0,3.315,0.784,3.282,3.371c-0.033,2.593-2.439,3.44-3.4,3.338
			c-15.548-0.002-28.974-0.04-28.974-0.04v6.73l30.832-0.033c3.647,0.029,10.169-2.652,10.183-10.003
			c0.017-6.858-5.772-10.17-10.286-10.094c0,0-18.826-0.017-18.826-0.017c-0.492,0-3.208-0.397-3.264-3.31
			c0-2.581,2.264-3.396,3.348-3.347c17.625,0.002,21.674-0.012,21.674-0.012l0.079-6.618L91.267,34.507z"/>
	</g>
</g>
<g id="BLANC" style="display:none;">
	<g id="PLEIN_1_" style="display:inline;">
		<g style="display:none;">
			<circle style="display:inline;fill:#FFFFFF;" cx="384.946" cy="63.143" r="4.198"/>
			<path style="display:inline;fill:#FFFFFF;" d="M150.185,36.622l-9.321,0.005l-9.311-0.008c-9.763,0-14.878,5.898-14.878,15.08
				c0,8.556,4.469,14.4,14.886,14.4l18.625-0.005c10.417,0,14.867-5.838,14.867-15.138C165.053,42.52,159.947,36.622,150.185,36.622
				z M149.27,60.257c-0.367,0-0.695,0-1.045,0v-0.002c0,0-1.383,0.001-7.356,0.002c-5.973-0.001-7.356-0.002-7.356-0.002v0.002
				c-0.35,0-0.678,0-1.045,0c-4.936,0-8.193-1.555-8.193-8.468c0-7.731,3.989-9.272,8.029-9.272h1.208v0.003l7.356-0.002
				l7.356,0.002v-0.003h1.208c4.041,0,8.018,1.42,8.018,9.151C157.452,58.55,154.206,60.257,149.27,60.257z"/>
			<path style="display:inline;fill:#FFFFFF;" d="M255.681,54.436l-0.009-3.393c0-0.044,0.004-0.085,0.004-0.13
				c0-0.041-0.004-0.08-0.005-0.121l-0.01-3.706c-0.005-1.94,3.48-4.636,5.97-4.618l16.04,0.001c1.564,0.016,5.113-0.35,5.074,2.783
				c-0.036,2.828-2.551,3.137-4.063,3.135c-13.234-0.02-17.596,0-17.596,0v5.884l17.808-0.002c3.32,0.035,11.889-1.065,11.85-8.652
				c-0.04-7.8-8.344-8.96-12.19-9l-17.13,0.007c-3.763-0.037-8.411,2.107-9.764,4.657c-1.857-2.77-5.823-4.658-10.852-4.664
				l-9.308,0.008l-9.31,0.01c-9.763,0-14.892,5.838-14.892,15.02c0,8.556,4.467,14.433,14.884,14.433l9.311,0.027l9.311-0.027
				c5.034,0,8.445-1.357,10.864-3.825c2.61,2.344,6.574,3.806,10.775,3.834h28.356v-5.88l-29.31-0.004
				C258.233,60.193,255.687,56.972,255.681,54.436z M239.893,60.215c-0.367,0-0.695,0-1.045,0v-0.002c0,0-1.383,0.001-7.355,0.002
				c-5.973-0.001-7.356-0.002-7.356-0.002v0.002c-0.35,0-0.679,0-1.045,0c-4.936,0-8.193-1.555-8.193-8.468
				c0-7.731,3.988-9.272,8.029-9.272h1.208v0.003l7.356-0.002l7.356,0.002v-0.003h1.208c4.04,0,8.018,1.42,8.018,9.151
				C248.074,58.508,244.829,60.215,239.893,60.215z"/>
			<path style="display:inline;fill:#FFFFFF;" d="M205.529,42.439v-5.817h-25.55c-7.167,0-13.132,6.093-13.132,11.678l-0.001,7.628
				c0,5.585,5.959,10.171,13.127,10.171l25.557-0.015v-5.911l-24.81,0.004c-3.031,0-6.272-2.556-6.272-4.918V48.22
				c0-2.456,3.313-5.784,6.436-5.783C194.111,42.439,205.529,42.439,205.529,42.439z"/>
			<path style="display:inline;fill:#FFFFFF;" d="M339.636,48.379v5.906l21.371,0.026c3.254,0.059,6.734,3.801,6.704,5.896v5.891
				l7.602,0.001v-6.237c0.074-5.137-6.247-11.371-14.227-11.5L339.636,48.379z"/>
			<g style="display:inline;">
				<path style="fill:#FFFFFF;" d="M346.483,36.618l-5.569,0.006c-4.815,0-8.707,2.956-8.707,6.709v22.772l7.602-0.005V45.343
					c0-0.742,0.326-2.844,6.059-2.857c6.545-0.015,6.059,2.89,6.059,4.087l7.602-0.006
					C359.472,41.017,356.692,36.483,346.483,36.618z"/>
				<path style="fill:#FFFFFF;" d="M359.572,48.888h-0.043c0,0.03,0.005,0.06,0.005,0.09L359.572,48.888z"/>
			</g>
			<path style="display:inline;fill:#FFFFFF;" d="M322.836,36.623l-0.005,17.568c-0.003,2.274-0.057,6.048-7.119,6.048l-4.002,0.037
				l-4.909-0.029c-6.494,0-6.641-4.238-6.669-6.056l-0.005-17.568h-7.599v17.631c0,9.701,7.03,11.895,15.012,11.85h7.885
				c7.981,0.045,15.011-2.375,15.011-11.85V36.623H322.836z"/>
			<path style="display:inline;fill:#FFFFFF;" d="M108.333,36.549L87.67,36.574c-5.493-0.014-9.084,4.133-9.109,8.936
				c-0.035,5.779,4.996,8.894,8.95,8.874l16.79-0.048c0.982,0,2.926,0.692,2.898,2.976c-0.029,2.289-2.154,3.037-3.002,2.947
				c-13.727-0.002-25.58-0.035-25.58-0.035v5.941l27.22-0.029c3.22,0.025,8.978-2.341,8.99-8.832
				c0.015-6.055-5.096-8.979-9.081-8.911l-16.621-0.015c-0.434,0-2.833-0.351-2.882-2.922c0-2.279,1.999-2.998,2.955-2.955
				c15.561,0.002,19.135-0.011,19.135-0.011l0.07-5.843L108.333,36.549z"/>
		</g>
		<g>
			<circle style="fill:#FFFFFF;" cx="384.946" cy="63.143" r="4.198"/>
			<path style="fill:#FFFFFF;" d="M150.185,36.622l-9.321,0.005l-9.311-0.008c-9.763,0-14.878,5.898-14.878,15.08
				c0,8.556,4.469,14.4,14.886,14.4l18.625-0.005c10.417,0,14.867-5.838,14.867-15.138C165.053,42.52,159.947,36.622,150.185,36.622
				z M149.27,60.257c-0.367,0-0.695,0-1.045,0v-0.002c0,0-1.383,0.001-7.356,0.002c-5.973-0.001-7.356-0.002-7.356-0.002v0.002
				c-0.35,0-0.678,0-1.045,0c-4.936,0-8.193-1.555-8.193-8.468c0-7.731,3.989-9.272,8.029-9.272h1.208v0.003l7.356-0.002
				l7.356,0.002v-0.003h1.208c4.041,0,8.018,1.42,8.018,9.151C157.452,58.55,154.206,60.257,149.27,60.257z"/>
			<path style="fill:#FFFFFF;" d="M255.681,54.436l-0.009-3.393c0-0.044,0.004-0.085,0.004-0.13c0-0.041-0.004-0.08-0.005-0.121
				l-0.01-3.706c-0.005-1.94,3.48-4.636,5.97-4.618l16.04,0.001c1.564,0.016,5.113-0.35,5.074,2.783
				c-0.036,2.828-2.551,3.137-4.063,3.135c-13.234-0.02-17.596,0-17.596,0v5.884l17.808-0.002c3.32,0.035,11.889-1.065,11.85-8.652
				c-0.04-7.8-8.344-8.96-12.19-9l-17.13,0.007c-3.763-0.037-8.411,2.107-9.764,4.657c-1.857-2.77-5.823-4.658-10.852-4.664
				l-9.308,0.008l-9.31,0.01c-9.763,0-14.892,5.838-14.892,15.02c0,8.556,4.467,14.433,14.884,14.433l9.311,0.027l9.311-0.027
				c5.034,0,8.445-1.357,10.864-3.825c2.61,2.344,6.574,3.806,10.775,3.834h28.356v-5.88l-29.31-0.004
				C258.233,60.193,255.687,56.972,255.681,54.436z M239.893,60.215c-0.367,0-0.695,0-1.045,0v-0.002c0,0-1.383,0.001-7.355,0.002
				c-5.973-0.001-7.356-0.002-7.356-0.002v0.002c-0.35,0-0.679,0-1.045,0c-4.936,0-8.193-1.555-8.193-8.468
				c0-7.731,3.988-9.272,8.029-9.272h1.208v0.003l7.356-0.002l7.356,0.002v-0.003h1.208c4.04,0,8.018,1.42,8.018,9.151
				C248.074,58.508,244.829,60.215,239.893,60.215z"/>
			<path style="fill:#FFFFFF;" d="M205.529,42.439v-5.817h-25.55c-7.167,0-13.132,6.093-13.132,11.678l-0.001,7.628
				c0,5.585,5.959,10.171,13.127,10.171l25.557-0.015v-5.911l-24.81,0.004c-3.031,0-6.272-2.556-6.272-4.918V48.22
				c0-2.456,3.313-5.784,6.436-5.783C194.111,42.439,205.529,42.439,205.529,42.439z"/>
			<path style="fill:#FFFFFF;" d="M339.636,48.379v5.906l21.371,0.026c3.254,0.059,6.734,3.801,6.704,5.896v5.891l7.602,0.001
				v-6.237c0.074-5.137-6.247-11.371-14.227-11.5L339.636,48.379z"/>
			<g>
				<path style="fill:#FFFFFF;" d="M346.483,36.618l-5.569,0.006c-4.815,0-8.707,2.956-8.707,6.709v22.772l7.602-0.005V45.343
					c0-0.742,0.326-2.844,6.059-2.857c6.545-0.015,6.059,2.89,6.059,4.087l7.602-0.006
					C359.472,41.017,356.692,36.483,346.483,36.618z"/>
				<path style="fill:#FFFFFF;" d="M359.572,48.888h-0.043c0,0.03,0.005,0.06,0.005,0.09L359.572,48.888z"/>
			</g>
			<path style="fill:#FFFFFF;" d="M322.836,36.623l-0.005,17.568c-0.003,2.274-0.057,6.048-7.119,6.048l-4.002,0.037l-4.909-0.029
				c-6.494,0-6.641-4.238-6.669-6.056l-0.005-17.568h-7.599v17.631c0,9.701,7.03,11.895,15.012,11.85h7.885
				c7.981,0.045,15.011-2.375,15.011-11.85V36.623H322.836z"/>
			<path style="fill:#FFFFFF;" d="M108.333,36.549L87.67,36.574c-5.493-0.014-9.084,4.133-9.109,8.936
				c-0.035,5.779,4.996,8.894,8.95,8.874l16.79-0.048c0.982,0,2.926,0.692,2.898,2.976c-0.029,2.289-2.154,3.037-3.002,2.947
				c-13.727-0.002-25.58-0.035-25.58-0.035v5.941l27.22-0.029c3.22,0.025,8.978-2.341,8.99-8.832
				c0.015-6.055-5.096-8.979-9.081-8.911l-16.621-0.015c-0.434,0-2.833-0.351-2.882-2.922c0-2.279,1.999-2.998,2.955-2.955
				c15.561,0.002,19.135-0.011,19.135-0.011l0.07-5.843L108.333,36.549z"/>
		</g>
	</g>
</g>
</svg>
