<?xml version="1.0" encoding="iso-8859-1"?>
<!-- Generator: Adobe Illustrator 25.2.3, SVG Export Plug-In . SVG Version: 6.00 Build 0)  -->
<svg version="1.1" xmlns="http://www.w3.org/2000/svg" xmlns:xlink="http://www.w3.org/1999/xlink" x="0px" y="0px"
	 viewBox="0 0 451.409 101.945" style="enable-background:new 0 0 451.409 101.945;" xml:space="preserve">
<g id="BG_1_">
	<g id="BG">
		<rect x="-0.114" y="0" style="fill:#1D1D1B;" width="451.52" height="101.937"/>
	</g>
</g>
<g id="NOIR">
	<g>
		<path style="fill:#F9F9F7;" d="M155.508,51.333c0-9.555-5.779-16.743-16.837-16.743l-10.557,0.005l-10.547-0.009
			c-11.058,0-16.835,6.36-16.835,16.761c0,9.691,5.046,16.631,16.845,16.631l21.096-0.005
			C150.472,67.971,155.508,61.867,155.508,51.333z M136.451,61.36v-0.002c0,0-1.567,0.001-8.331,0.002
			c-6.765-0.001-8.332-0.002-8.332-0.002v0.002c-0.397,0-0.768,0-1.184,0c-5.591,0-9.318-2.184-9.318-10.014
			c0-8.756,4.556-10.08,9.133-10.08l1.369,0v0.004l8.332-0.002l8.331,0.002v-0.004l1.369,0c4.577,0,9.04,1.347,9.04,10.104
			c0,7.795-3.635,9.991-9.225,9.991C137.22,61.36,136.848,61.36,136.451,61.36z"/>
		<path style="fill:#F9F9F7;" d="M258.164,55.694l-0.022-9.252c-0.006-2.198,3.942-5.251,6.762-5.23l18.168,0.001
			c1.771,0.019,5.792-0.396,5.748,3.152c-0.04,3.203-2.89,3.553-4.602,3.55c-14.99-0.023-24.025,0-24.025,0v6.665l24.264-0.002
			c3.761,0.04,13.467-1.206,13.422-9.8c-0.045-8.835-9.451-10.149-13.807-10.195l-19.403,0.008
			c-4.262-0.041-9.527,2.387-11.06,5.275c-2.104-3.138-6.596-5.276-12.292-5.283l-10.543,0.01l-10.545,0.012
			c-11.058,0-16.876,6.319-16.876,16.719c0,9.691,5.067,16.642,16.867,16.642l10.547,0.031l10.546-0.031
			c5.702,0,9.565-1.537,12.305-4.333c2.956,2.655,7.446,4.311,12.205,4.343l32.118,0v-6.661l-33.199-0.004
			C261.055,61.287,258.172,58.567,258.164,55.694z M240.281,61.312c-0.415,0-0.787,0-1.184,0V61.31c0,0-1.566,0.001-8.331,0.002
			c-6.765-0.001-8.332-0.002-8.332-0.002v0.002c-0.397,0-0.769,0-1.184,0c-5.591,0-9.328-2.158-9.328-9.988
			c0-8.756,4.566-10.106,9.143-10.106l1.369,0v0.004l8.332-0.002l8.332,0.002v-0.004l1.369,0c4.576,0,9.09,1.352,9.09,10.109
			C249.556,59.122,245.872,61.312,240.281,61.312z"/>
		<path style="fill:#F9F9F7;" d="M201.358,41.179V34.59h-28.94c-8.118,0-14.843,6.02-14.91,16.743
			c-0.061,9.653,6.784,16.645,14.903,16.645l28.947-0.017v-6.695l-28.101,0.004c-3.433,0-7.177-1.366-7.12-9.911
			s3.768-10.183,7.306-10.183C188.425,41.179,201.358,41.179,201.358,41.179z"/>
		<path style="fill:#F9F9F7;" d="M353.259,47.906v6.69l24.207,0.03c3.686,0.067,7.628,4.305,7.593,6.678v6.673l8.61,0.001l0-7.065
			c0.084-5.819-7.076-12.88-16.115-13.026L353.259,47.906z"/>
		<g>
			<path style="fill:#F9F9F7;" d="M361.014,34.585l-6.308,0.006c-5.454,0-9.863,3.348-9.863,7.599v25.793l8.61-0.005V44.467
				c0-0.841,0.369-3.221,6.863-3.236c7.413-0.017,6.863,3.274,6.863,4.629l8.61-0.007C375.727,39.567,372.577,34.432,361.014,34.585
				z"/>
			<path style="fill:#F9F9F7;" d="M375.839,48.482h-0.049c0.001,0.034,0.006,0.068,0.006,0.102L375.839,48.482z"/>
		</g>
		<path style="fill:#F9F9F7;" d="M334.229,34.59l-0.006,19.899c-0.003,2.576-0.065,6.851-8.063,6.851l-4.533,0.042l-5.561-0.033
			c-7.355,0-7.522-4.8-7.554-6.859l-0.006-19.899h-8.607v19.971c0,10.988,7.963,13.473,17.003,13.422h8.931
			c9.04,0.052,17.003-2.69,17.003-13.422V34.59H334.229z"/>
		<path style="fill:#F9F9F7;" d="M91.267,34.507l-23.405,0.028c-6.222-0.016-10.29,4.681-10.318,10.121
			c-0.04,6.546,5.659,10.074,10.137,10.051l19.018-0.055c1.113,0,3.315,0.784,3.282,3.371c-0.033,2.593-2.439,3.44-3.4,3.338
			c-15.548-0.002-28.974-0.04-28.974-0.04v6.73l30.832-0.033c3.647,0.029,10.169-2.652,10.183-10.003
			c0.017-6.858-5.772-10.17-10.286-10.094c0,0-18.826-0.017-18.826-0.017c-0.492,0-3.208-0.397-3.264-3.31
			c0-2.581,2.264-3.396,3.348-3.347c17.625,0.002,21.674-0.012,21.674-0.012l0.079-6.618L91.267,34.507z"/>
	</g>
</g>
</svg>
