<?xml version="1.0" encoding="iso-8859-1"?>
<!-- Generator: Adobe Illustrator 25.2.3, SVG Export Plug-In . SVG Version: 6.00 Build 0)  -->
<svg version="1.1" xmlns="http://www.w3.org/2000/svg" xmlns:xlink="http://www.w3.org/1999/xlink" x="0px" y="0px"
	 viewBox="0 0 139.684 99.423" style="enable-background:new 0 0 139.684 99.423;" xml:space="preserve">
<g id="FOND">
	<rect x="-0.003" style="fill:#F9F9F7;" width="139.687" height="99.423"/>
</g>
<g id="Calque_5" style="display:none;">
	
		<image style="display:inline;overflow:visible;" width="1130" height="840" xlink:href="../../../../../Capture d&#x2019;e&#x301;cran 2026-02-26 a&#x300; 17.52.58.png"  transform="matrix(0.1244 0 0 0.1189 -0.6373 -0.1205)">
	</image>
</g>
<g id="Calque_3">
	<g>
		<path style="fill:#1F1F1F;" d="M62.659,34.159l-22.256,0.027c-5.916-0.015-9.784,4.451-9.811,9.624
			c-0.038,6.224,5.381,9.579,9.639,9.557l18.084-0.052c1.058,0,3.152,0.745,3.121,3.206c-0.031,2.466-2.319,3.271-3.233,3.174
			c-14.785-0.002-27.551-0.038-27.551-0.038v6.399l29.318-0.031c3.468,0.027,9.669-2.522,9.683-9.512
			c0.017-6.522-5.488-9.671-9.781-9.598l-15.712,0.056c0,0-2.178-0.031-2.178-0.031c-0.468,0-3.062-0.418-3.115-3.188
			c0-2.454,2.153-3.229,3.183-3.183c16.76,0.002,20.609-0.011,20.609-0.011l0.075-6.293L62.659,34.159z"/>
		<g>
			<g>
				<path style="fill:#1F1F1F;" d="M87.768,66.047L69.469,49.209c-3.062-3.225-3.552-9.174,0.229-13.07
					c3.556-3.663,9.43-3.683,12.844-0.66c1.378,1.22,1.936,1.755,3.583,3.26c-1.182,1.164-4.556,4.186-4.556,4.186
					s-2.297-2.089-2.947-2.69c-1.063-0.877-3.125-1.242-4.543,0.361c-1.483,1.677-0.632,3.717,0.105,4.386
					c1.614,1.465,13.554,12.463,13.554,12.463c3.135-2.9,7.689-7.105,13.385-12.44c1.113-1.042,1.371-3.018,0.015-4.412
					c-1.497-1.538-3.538-1.037-4.51-0.102c-2.179,2.015-10.385,9.525-10.385,9.525l-4.598-4.235c0,0,10.031-9.226,11.257-10.404
					c2.327-2.235,8.455-3.464,12.631,0.677c4.73,4.691,2.65,11.166,0.024,13.555C101.59,53.218,87.768,66.047,87.768,66.047z"/>
			</g>
		</g>
	</g>
</g>
<g id="Calque_4" style="display:none;">
	<g style="display:inline;">
		<g>
			<path d="M73.744,66.718l-18.681-17.19c-3.126-3.292-3.626-9.366,0.234-13.343c3.63-3.74,9.627-3.76,13.112-0.673
				c1.407,1.246,1.976,1.792,3.658,3.328c-1.207,1.188-4.651,4.274-4.651,4.274s-2.345-2.133-3.008-2.746
				c-1.085-0.896-3.19-1.268-4.637,0.369c-1.514,1.712-0.646,3.794,0.107,4.478c1.648,1.496,13.837,12.724,13.837,12.724
				c3.2-2.96,7.85-7.253,13.665-12.7c1.136-1.064,1.399-3.081,0.015-4.504c-1.529-1.57-3.612-1.059-4.604-0.104
				c-2.224,2.057-10.602,9.724-10.602,9.724l-4.695-4.323c0,0,10.241-9.419,11.492-10.621c2.376-2.282,8.632-3.537,12.895,0.691
				c4.829,4.789,2.706,11.399,0.024,13.838C87.854,53.621,73.744,66.718,73.744,66.718z"/>
		</g>
	</g>
</g>
</svg>
